<svg xmlns="http://www.w3.org/2000/svg" version="1.1" xmlns:xlink="http://www.w3.org/1999/xlink" xmlns:svgjs="http://svgjs.com/svgjs" width="1920" height="1080" preserveAspectRatio="none" viewBox="0 0 1920 1080"><g mask="url(&quot;#SvgjsMask1017&quot;)" fill="none"><path d="M1412.62 602.25L1465.47 602.25L1465.47 655.1L1412.62 655.1z" stroke="#037b0b"></path><path d="M13.83 372.63 a96.93 96.93 0 1 0 193.86 0 a96.93 96.93 0 1 0 -193.86 0z" fill="#d3b714"></path><path d="M848.98 527.28L913.24 527.28L913.24 591.54L848.98 591.54z" stroke="#037b0b"></path><path d="M425.67 595.66a16.41 16.41 0 1 0 19.79-26.19z" stroke="#e73635"></path><path d="M24.04 60.11L113.04 60.11L113.04 149.11L24.04 149.11z" stroke="#d3b714"></path><path d="M107.35 374.54 a106.42 106.42 0 1 0 212.84 0 a106.42 106.42 0 1 0 -212.84 0z" fill="#e73635"></path><path d="M43.21 825.89 a32.08 32.08 0 1 0 64.16 0 a32.08 32.08 0 1 0 -64.16 0z" stroke="#e73635"></path><path d="M1523.03 627.04a45.32 45.32 0 1 0 49.65-75.83z" fill="#e73635"></path><path d="M1373.68 888.63L1446.82 888.63L1446.82 995.92L1373.68 995.92z" stroke="#e73635"></path><path d="M1635.4 814.48L1695.41 814.48L1695.41 874.49L1635.4 874.49z" stroke="#e73635"></path><path d="M1308.36 284.83 a96.81 96.81 0 1 0 193.62 0 a96.81 96.81 0 1 0 -193.62 0z" fill="#e73635"></path><path d="M1827.61 391.73L1827.93 391.73L1827.93 392.05L1827.61 392.05z" stroke="#e73635"></path><path d="M623.49 17.9L719.73 17.9L719.73 113.82L623.49 113.82z" fill="#037b0b"></path><path d="M1225.33 751.77L1285.89 751.77L1285.89 812.33L1225.33 812.33z" fill="#e73635"></path><path d="M1418.04 522.46L1525.9 522.46L1525.9 630.32L1418.04 630.32z" stroke="#e73635"></path><path d="M1412.67 343.28L1417.6 343.28L1417.6 444.39L1412.67 444.39z" stroke="#d3b714"></path><path d="M1882.06 73.93L1935.08 73.93L1935.08 126.95L1882.06 126.95z" stroke="#037b0b"></path><path d="M932.06 127.16L1008.7 127.16L1008.7 180.18L932.06 180.18z" fill="#e73635"></path><path d="M502.25 549.59L602.14 549.59L602.14 629.4L502.25 629.4z" fill="#037b0b"></path><path d="M61.42 1071.2L112.01 1071.2L112.01 1121.79L61.42 1121.79z" fill="#037b0b"></path><path d="M280.78 439.71L346 439.71L346 512.26L280.78 512.26z" stroke="#d3b714"></path><path d="M1080.22 811.06L1119.58 811.06L1119.58 884.13L1080.22 884.13z" stroke="#e73635"></path><path d="M540.45 547.65L631.9 547.65L631.9 639.1L540.45 639.1z" stroke="#d3b714"></path></g><defs><mask id="SvgjsMask1017"><rect width="1920" height="1080" fill="#ffffff"></rect></mask></defs></svg>